<mxfile host="app.diagrams.net" modified="2021-04-10T23:16:53.840Z" agent="5.0 (Windows NT 10.0; Win64; x64) AppleWebKit/537.36 (KHTML, like Gecko) Chrome/89.0.4389.114 Safari/537.36" etag="Cx96K3k84_w41tgUfniH" version="14.4.9" type="github">
  <diagram name="Page-1" id="2c0d36ab-eaac-3732-788b-9136903baeff">
    <mxGraphModel dx="2076" dy="1248" grid="1" gridSize="10" guides="1" tooltips="1" connect="1" arrows="1" fold="1" page="1" pageScale="1.5" pageWidth="1169" pageHeight="827" background="#ffffff" math="0" shadow="0">
      <root>
        <mxCell id="0" />
        <mxCell id="1" parent="0" />
        <mxCell id="ItSWR8N8kELLmywf9mN6-153" value="" style="fillColor=#0050ef;strokeColor=#001DBC;opacity=30;fontColor=#ffffff;fontSize=16;" vertex="1" parent="1">
          <mxGeometry x="720" y="172.75" width="260" height="105.5" as="geometry" />
        </mxCell>
        <mxCell id="ItSWR8N8kELLmywf9mN6-154" value="" style="fillColor=#008a00;strokeColor=#005700;opacity=30;fontColor=#ffffff;" vertex="1" parent="1">
          <mxGeometry x="20" y="449" width="1730" height="121" as="geometry" />
        </mxCell>
        <mxCell id="123" value="" style="fillColor=#AE4132;strokeColor=none;opacity=30;fontSize=16;" parent="1" vertex="1">
          <mxGeometry x="747" y="15.500000000000028" width="210" height="99.99999999999994" as="geometry" />
        </mxCell>
        <mxCell id="ItSWR8N8kELLmywf9mN6-166" value="" style="edgeStyle=orthogonalEdgeStyle;rounded=0;orthogonalLoop=1;jettySize=auto;html=1;fontSize=16;" edge="1" parent="1" source="122" target="ItSWR8N8kELLmywf9mN6-154">
          <mxGeometry relative="1" as="geometry" />
        </mxCell>
        <mxCell id="122" value="" style="fillColor=#1ba1e2;strokeColor=#006EAF;opacity=30;fontColor=#ffffff;" parent="1" vertex="1">
          <mxGeometry x="30" y="320" width="1720" height="105.5" as="geometry" />
        </mxCell>
        <mxCell id="ItSWR8N8kELLmywf9mN6-124" value="" style="edgeStyle=orthogonalEdgeStyle;rounded=0;orthogonalLoop=1;jettySize=auto;html=1;fontSize=16;" edge="1" parent="1" source="2" target="ItSWR8N8kELLmywf9mN6-123">
          <mxGeometry relative="1" as="geometry" />
        </mxCell>
        <mxCell id="2" value="Gerencia General" style="rounded=1;fillColor=#23445D;gradientColor=none;strokeColor=none;fontColor=#FFFFFF;fontStyle=1;fontFamily=Tahoma;fontSize=16;" parent="1" vertex="1">
          <mxGeometry x="757" y="185.5" width="190" height="80" as="geometry" />
        </mxCell>
        <mxCell id="ItSWR8N8kELLmywf9mN6-163" value="" style="edgeStyle=orthogonalEdgeStyle;rounded=0;orthogonalLoop=1;jettySize=auto;html=1;fontSize=16;" edge="1" parent="1" source="4" target="ItSWR8N8kELLmywf9mN6-162">
          <mxGeometry relative="1" as="geometry" />
        </mxCell>
        <mxCell id="4" value="Gerencia Proyecto" style="rounded=1;fillColor=#23445D;gradientColor=none;strokeColor=none;fontColor=#FFFFFF;fontStyle=1;fontFamily=Tahoma;fontSize=16;" parent="1" vertex="1">
          <mxGeometry x="1479.9999999999998" y="335.5" width="190" height="80" as="geometry" />
        </mxCell>
        <mxCell id="9" value="" style="edgeStyle=elbowEdgeStyle;elbow=vertical;strokeWidth=2;rounded=0;fontSize=16;" parent="1" source="2" target="4" edge="1">
          <mxGeometry x="337" y="215.5" width="100" height="100" as="geometry">
            <mxPoint x="337" y="315.5" as="sourcePoint" />
            <mxPoint x="437" y="215.5" as="targetPoint" />
            <Array as="points">
              <mxPoint x="1180" y="300" />
            </Array>
          </mxGeometry>
        </mxCell>
        <mxCell id="ItSWR8N8kELLmywf9mN6-125" style="edgeStyle=orthogonalEdgeStyle;rounded=0;orthogonalLoop=1;jettySize=auto;html=1;entryX=0.5;entryY=1;entryDx=0;entryDy=0;fontSize=16;" edge="1" parent="1" source="10" target="2">
          <mxGeometry relative="1" as="geometry">
            <Array as="points">
              <mxPoint x="1135" y="300" />
              <mxPoint x="852" y="300" />
            </Array>
          </mxGeometry>
        </mxCell>
        <mxCell id="ItSWR8N8kELLmywf9mN6-144" value="" style="edgeStyle=orthogonalEdgeStyle;rounded=0;orthogonalLoop=1;jettySize=auto;html=1;fontSize=16;" edge="1" parent="1" source="10" target="ItSWR8N8kELLmywf9mN6-143">
          <mxGeometry relative="1" as="geometry" />
        </mxCell>
        <mxCell id="ItSWR8N8kELLmywf9mN6-145" value="" style="edgeStyle=orthogonalEdgeStyle;rounded=0;orthogonalLoop=1;jettySize=auto;html=1;fontSize=16;" edge="1" parent="1" source="10" target="ItSWR8N8kELLmywf9mN6-143">
          <mxGeometry relative="1" as="geometry" />
        </mxCell>
        <mxCell id="ItSWR8N8kELLmywf9mN6-147" value="" style="edgeStyle=orthogonalEdgeStyle;rounded=0;orthogonalLoop=1;jettySize=auto;html=1;fontSize=16;" edge="1" parent="1" source="10" target="ItSWR8N8kELLmywf9mN6-146">
          <mxGeometry relative="1" as="geometry" />
        </mxCell>
        <mxCell id="ItSWR8N8kELLmywf9mN6-148" value="" style="edgeStyle=orthogonalEdgeStyle;rounded=0;orthogonalLoop=1;jettySize=auto;html=1;fontSize=16;" edge="1" parent="1" source="10" target="ItSWR8N8kELLmywf9mN6-146">
          <mxGeometry relative="1" as="geometry" />
        </mxCell>
        <mxCell id="ItSWR8N8kELLmywf9mN6-149" value="" style="edgeStyle=orthogonalEdgeStyle;rounded=0;orthogonalLoop=1;jettySize=auto;html=1;fontSize=16;" edge="1" parent="1" source="10" target="ItSWR8N8kELLmywf9mN6-146">
          <mxGeometry relative="1" as="geometry" />
        </mxCell>
        <mxCell id="ItSWR8N8kELLmywf9mN6-152" value="" style="edgeStyle=orthogonalEdgeStyle;rounded=0;orthogonalLoop=1;jettySize=auto;html=1;fontSize=16;" edge="1" parent="1" source="10" target="ItSWR8N8kELLmywf9mN6-151">
          <mxGeometry relative="1" as="geometry" />
        </mxCell>
        <mxCell id="ItSWR8N8kELLmywf9mN6-159" value="" style="edgeStyle=orthogonalEdgeStyle;rounded=0;orthogonalLoop=1;jettySize=auto;html=1;fontSize=16;" edge="1" parent="1" source="10" target="ItSWR8N8kELLmywf9mN6-158">
          <mxGeometry relative="1" as="geometry" />
        </mxCell>
        <mxCell id="10" value="Gerencia Comercial" style="rounded=1;fillColor=#23445D;gradientColor=none;strokeColor=none;fontColor=#FFFFFF;fontStyle=1;fontFamily=Tahoma;fontSize=16;" parent="1" vertex="1">
          <mxGeometry x="1040" y="332.75" width="190" height="80" as="geometry" />
        </mxCell>
        <mxCell id="ItSWR8N8kELLmywf9mN6-137" style="edgeStyle=orthogonalEdgeStyle;rounded=0;orthogonalLoop=1;jettySize=auto;html=1;entryX=0;entryY=0.5;entryDx=0;entryDy=0;fontSize=16;" edge="1" parent="1" source="12" target="ItSWR8N8kELLmywf9mN6-135">
          <mxGeometry relative="1" as="geometry" />
        </mxCell>
        <mxCell id="ItSWR8N8kELLmywf9mN6-173" style="edgeStyle=orthogonalEdgeStyle;rounded=0;orthogonalLoop=1;jettySize=auto;html=1;fontSize=16;" edge="1" parent="1" source="12" target="ItSWR8N8kELLmywf9mN6-170">
          <mxGeometry relative="1" as="geometry" />
        </mxCell>
        <mxCell id="12" value="Gerencia Operaciones" style="rounded=1;fillColor=#23445D;gradientColor=none;strokeColor=none;fontColor=#FFFFFF;fontStyle=1;fontFamily=Tahoma;fontSize=16;" parent="1" vertex="1">
          <mxGeometry x="449.9999999999999" y="335.5" width="190" height="80" as="geometry" />
        </mxCell>
        <mxCell id="ItSWR8N8kELLmywf9mN6-134" style="edgeStyle=orthogonalEdgeStyle;rounded=0;orthogonalLoop=1;jettySize=auto;html=1;entryX=0;entryY=0.5;entryDx=0;entryDy=0;fontSize=16;" edge="1" parent="1" source="13" target="ItSWR8N8kELLmywf9mN6-133">
          <mxGeometry relative="1" as="geometry" />
        </mxCell>
        <mxCell id="ItSWR8N8kELLmywf9mN6-168" value="" style="edgeStyle=orthogonalEdgeStyle;rounded=0;orthogonalLoop=1;jettySize=auto;html=1;fontSize=16;" edge="1" parent="1" source="13" target="ItSWR8N8kELLmywf9mN6-167">
          <mxGeometry relative="1" as="geometry" />
        </mxCell>
        <mxCell id="13" value="Gerencia RRHH" style="rounded=1;fillColor=#23445D;gradientColor=none;strokeColor=none;fontColor=#FFFFFF;fontStyle=1;fontFamily=Tahoma;fontSize=14" parent="1" vertex="1">
          <mxGeometry x="40" y="325.5" width="190" height="80" as="geometry" />
        </mxCell>
        <mxCell id="59" value="" style="edgeStyle=elbowEdgeStyle;elbow=vertical;strokeWidth=2;rounded=0;fontSize=16;" parent="1" source="2" target="12" edge="1">
          <mxGeometry x="347" y="225.5" width="100" height="100" as="geometry">
            <mxPoint x="861.9999999999999" y="275.5" as="sourcePoint" />
            <mxPoint x="1466.9999999999998" y="345.5" as="targetPoint" />
          </mxGeometry>
        </mxCell>
        <mxCell id="61" value="" style="edgeStyle=elbowEdgeStyle;elbow=vertical;strokeWidth=2;rounded=0;fontSize=16;" parent="1" source="2" target="13" edge="1">
          <mxGeometry x="-23" y="135.5" width="100" height="100" as="geometry">
            <mxPoint x="-23" y="235.5" as="sourcePoint" />
            <mxPoint x="77" y="135.5" as="targetPoint" />
            <Array as="points">
              <mxPoint x="420" y="300" />
            </Array>
          </mxGeometry>
        </mxCell>
        <mxCell id="ItSWR8N8kELLmywf9mN6-123" value="Directorio" style="whiteSpace=wrap;html=1;rounded=1;fontFamily=Tahoma;fontSize=16;fontColor=#FFFFFF;fontStyle=1;strokeColor=none;fillColor=#23445D;" vertex="1" parent="1">
          <mxGeometry x="792" y="35.5" width="120" height="60" as="geometry" />
        </mxCell>
        <mxCell id="ItSWR8N8kELLmywf9mN6-126" style="edgeStyle=orthogonalEdgeStyle;rounded=0;orthogonalLoop=1;jettySize=auto;html=1;exitX=0.5;exitY=1;exitDx=0;exitDy=0;fontSize=16;" edge="1" parent="1" source="2" target="2">
          <mxGeometry relative="1" as="geometry" />
        </mxCell>
        <mxCell id="ItSWR8N8kELLmywf9mN6-133" value="Subgerencia/Asistente" style="rounded=1;fillColor=#23445D;gradientColor=none;strokeColor=none;fontColor=#FFFFFF;fontStyle=1;fontFamily=Tahoma;fontSize=16;" vertex="1" parent="1">
          <mxGeometry x="170" y="470" width="193" height="84.5" as="geometry" />
        </mxCell>
        <mxCell id="ItSWR8N8kELLmywf9mN6-135" value="Subgerencia/Asistente" style="rounded=1;fillColor=#23445D;gradientColor=none;strokeColor=none;fontColor=#FFFFFF;fontStyle=1;fontFamily=Tahoma;fontSize=16;" vertex="1" parent="1">
          <mxGeometry x="580" y="470" width="193" height="84.5" as="geometry" />
        </mxCell>
        <mxCell id="ItSWR8N8kELLmywf9mN6-177" style="edgeStyle=orthogonalEdgeStyle;rounded=0;orthogonalLoop=1;jettySize=auto;html=1;entryX=0;entryY=0.5;entryDx=0;entryDy=0;fontSize=16;" edge="1" parent="1" source="ItSWR8N8kELLmywf9mN6-143" target="ItSWR8N8kELLmywf9mN6-174">
          <mxGeometry relative="1" as="geometry" />
        </mxCell>
        <mxCell id="ItSWR8N8kELLmywf9mN6-143" value="J. Ventas" style="whiteSpace=wrap;html=1;rounded=1;fontFamily=Tahoma;fontSize=16;fontColor=#FFFFFF;fontStyle=1;strokeColor=none;fillColor=#23445D;" vertex="1" parent="1">
          <mxGeometry x="947" y="479.5" width="120" height="60" as="geometry" />
        </mxCell>
        <mxCell id="ItSWR8N8kELLmywf9mN6-175" style="edgeStyle=orthogonalEdgeStyle;rounded=0;orthogonalLoop=1;jettySize=auto;html=1;entryX=0.5;entryY=0;entryDx=0;entryDy=0;fontSize=16;" edge="1" parent="1" source="ItSWR8N8kELLmywf9mN6-146" target="ItSWR8N8kELLmywf9mN6-174">
          <mxGeometry relative="1" as="geometry" />
        </mxCell>
        <mxCell id="ItSWR8N8kELLmywf9mN6-146" value="J. Compras" style="whiteSpace=wrap;html=1;rounded=1;fontFamily=Tahoma;fontSize=16;fontColor=#FFFFFF;fontStyle=1;strokeColor=none;fillColor=#23445D;" vertex="1" parent="1">
          <mxGeometry x="1075" y="479.5" width="120" height="60" as="geometry" />
        </mxCell>
        <mxCell id="ItSWR8N8kELLmywf9mN6-176" style="edgeStyle=orthogonalEdgeStyle;rounded=0;orthogonalLoop=1;jettySize=auto;html=1;entryX=1;entryY=0.5;entryDx=0;entryDy=0;fontSize=16;" edge="1" parent="1" source="ItSWR8N8kELLmywf9mN6-151" target="ItSWR8N8kELLmywf9mN6-174">
          <mxGeometry relative="1" as="geometry" />
        </mxCell>
        <mxCell id="ItSWR8N8kELLmywf9mN6-151" value="J. Marketing" style="whiteSpace=wrap;html=1;rounded=1;fontFamily=Tahoma;fontSize=16;fontColor=#FFFFFF;fontStyle=1;strokeColor=none;fillColor=#23445D;" vertex="1" parent="1">
          <mxGeometry x="1200" y="479.5" width="120" height="60" as="geometry" />
        </mxCell>
        <mxCell id="ItSWR8N8kELLmywf9mN6-178" style="edgeStyle=orthogonalEdgeStyle;rounded=0;orthogonalLoop=1;jettySize=auto;html=1;entryX=1;entryY=0.5;entryDx=0;entryDy=0;fontSize=16;" edge="1" parent="1" source="ItSWR8N8kELLmywf9mN6-158" target="ItSWR8N8kELLmywf9mN6-174">
          <mxGeometry relative="1" as="geometry">
            <Array as="points">
              <mxPoint x="1390" y="680" />
            </Array>
          </mxGeometry>
        </mxCell>
        <mxCell id="ItSWR8N8kELLmywf9mN6-158" value="J. Contabilidad" style="whiteSpace=wrap;html=1;rounded=1;fontFamily=Tahoma;fontSize=16;fontColor=#FFFFFF;fontStyle=1;strokeColor=none;fillColor=#23445D;" vertex="1" parent="1">
          <mxGeometry x="1330" y="479.5" width="120" height="60" as="geometry" />
        </mxCell>
        <mxCell id="ItSWR8N8kELLmywf9mN6-165" value="" style="edgeStyle=orthogonalEdgeStyle;rounded=0;orthogonalLoop=1;jettySize=auto;html=1;fontSize=16;" edge="1" parent="1" source="ItSWR8N8kELLmywf9mN6-162" target="ItSWR8N8kELLmywf9mN6-164">
          <mxGeometry relative="1" as="geometry" />
        </mxCell>
        <mxCell id="ItSWR8N8kELLmywf9mN6-162" value="Jefatura de Proyecto" style="whiteSpace=wrap;html=1;rounded=1;fontFamily=Tahoma;fontSize=16;fontColor=#FFFFFF;fontStyle=1;strokeColor=none;fillColor=#23445D;" vertex="1" parent="1">
          <mxGeometry x="1480" y="470" width="190" height="70" as="geometry" />
        </mxCell>
        <mxCell id="ItSWR8N8kELLmywf9mN6-172" style="edgeStyle=orthogonalEdgeStyle;rounded=0;orthogonalLoop=1;jettySize=auto;html=1;entryX=0.5;entryY=0;entryDx=0;entryDy=0;fontSize=16;" edge="1" parent="1" source="ItSWR8N8kELLmywf9mN6-164" target="ItSWR8N8kELLmywf9mN6-171">
          <mxGeometry relative="1" as="geometry" />
        </mxCell>
        <mxCell id="ItSWR8N8kELLmywf9mN6-164" value="Líder por equipo de Desarrollo" style="whiteSpace=wrap;html=1;rounded=1;fontFamily=Tahoma;fontSize=16;fontColor=#FFFFFF;fontStyle=1;strokeColor=none;fillColor=#23445D;" vertex="1" parent="1">
          <mxGeometry x="1480" y="610" width="190" height="80" as="geometry" />
        </mxCell>
        <mxCell id="ItSWR8N8kELLmywf9mN6-167" value="Prestador de servicio" style="whiteSpace=wrap;html=1;rounded=1;fontFamily=Tahoma;fontSize=14;fontColor=#FFFFFF;fontStyle=1;strokeColor=none;fillColor=#23445D;" vertex="1" parent="1">
          <mxGeometry x="40" y="630" width="190" height="80" as="geometry" />
        </mxCell>
        <mxCell id="ItSWR8N8kELLmywf9mN6-170" value="Prestador de servicio" style="whiteSpace=wrap;html=1;rounded=1;fontFamily=Tahoma;fontSize=16;fontColor=#FFFFFF;fontStyle=1;strokeColor=none;fillColor=#23445D;" vertex="1" parent="1">
          <mxGeometry x="450" y="630" width="190" height="80" as="geometry" />
        </mxCell>
        <mxCell id="ItSWR8N8kELLmywf9mN6-171" value="Prestador de servicio" style="whiteSpace=wrap;html=1;rounded=1;fontFamily=Tahoma;fontSize=16;fontColor=#FFFFFF;fontStyle=1;strokeColor=none;fillColor=#23445D;" vertex="1" parent="1">
          <mxGeometry x="1480" y="740" width="190" height="80" as="geometry" />
        </mxCell>
        <mxCell id="ItSWR8N8kELLmywf9mN6-174" value="Prestador de servicio" style="whiteSpace=wrap;html=1;rounded=1;fontFamily=Tahoma;fontSize=14;fontColor=#FFFFFF;fontStyle=1;strokeColor=none;fillColor=#23445D;" vertex="1" parent="1">
          <mxGeometry x="1040" y="640" width="190" height="80" as="geometry" />
        </mxCell>
      </root>
    </mxGraphModel>
  </diagram>
</mxfile>
